<mxfile host="app.diagrams.net" agent="Mozilla/5.0 (X11; Ubuntu; Linux x86_64; rv:136.0) Gecko/20100101 Firefox/136.0" version="26.1.1">
  <diagram name="Page-1" id="1nVQrhc9S3InMs28T1gF">
    <mxGraphModel dx="1137" dy="638" grid="1" gridSize="10" guides="1" tooltips="1" connect="1" arrows="1" fold="1" page="1" pageScale="1" pageWidth="850" pageHeight="1100" math="0" shadow="0">
      <root>
        <mxCell id="0" />
        <mxCell id="1" parent="0" />
        <mxCell id="8ei59CMYlsV4Cs0Kjq3F-1" value="" style="rounded=0;whiteSpace=wrap;html=1;fillColor=none;" vertex="1" parent="1">
          <mxGeometry x="300" y="30" width="215" height="300" as="geometry" />
        </mxCell>
        <mxCell id="8ei59CMYlsV4Cs0Kjq3F-2" value="" style="rounded=0;whiteSpace=wrap;html=1;fillColor=none;" vertex="1" parent="1">
          <mxGeometry x="55" y="100" width="160" height="220" as="geometry" />
        </mxCell>
        <mxCell id="8ei59CMYlsV4Cs0Kjq3F-3" style="edgeStyle=orthogonalEdgeStyle;rounded=0;orthogonalLoop=1;jettySize=auto;html=1;entryX=0;entryY=0.5;entryDx=0;entryDy=0;strokeColor=#000000;strokeWidth=3;" edge="1" parent="1" source="8ei59CMYlsV4Cs0Kjq3F-4" target="8ei59CMYlsV4Cs0Kjq3F-11">
          <mxGeometry relative="1" as="geometry" />
        </mxCell>
        <mxCell id="8ei59CMYlsV4Cs0Kjq3F-4" value="" style="shape=trapezoid;perimeter=trapezoidPerimeter;whiteSpace=wrap;html=1;fixedSize=1;rotation=90;fillColor=none;" vertex="1" parent="1">
          <mxGeometry x="115" y="225" width="120" height="30" as="geometry" />
        </mxCell>
        <mxCell id="8ei59CMYlsV4Cs0Kjq3F-5" value="&lt;div&gt;A&lt;/div&gt;&lt;div&gt;D&lt;/div&gt;&lt;div&gt;D&lt;br&gt;&lt;/div&gt;" style="text;html=1;align=center;verticalAlign=middle;whiteSpace=wrap;rounded=0;" vertex="1" parent="1">
          <mxGeometry x="167.5" y="225" width="15" height="30" as="geometry" />
        </mxCell>
        <mxCell id="8ei59CMYlsV4Cs0Kjq3F-6" style="edgeStyle=orthogonalEdgeStyle;rounded=0;orthogonalLoop=1;jettySize=auto;html=1;exitX=1;exitY=0.5;exitDx=0;exitDy=0;entryX=0.75;entryY=1;entryDx=0;entryDy=0;strokeColor=#000000;strokeWidth=3;" edge="1" parent="1" source="8ei59CMYlsV4Cs0Kjq3F-8" target="8ei59CMYlsV4Cs0Kjq3F-22">
          <mxGeometry relative="1" as="geometry" />
        </mxCell>
        <mxCell id="8ei59CMYlsV4Cs0Kjq3F-7" style="edgeStyle=orthogonalEdgeStyle;rounded=0;orthogonalLoop=1;jettySize=auto;html=1;exitX=1;exitY=0.5;exitDx=0;exitDy=0;entryX=0.75;entryY=1;entryDx=0;entryDy=0;strokeColor=#000000;strokeWidth=3;" edge="1" parent="1" source="8ei59CMYlsV4Cs0Kjq3F-8" target="8ei59CMYlsV4Cs0Kjq3F-25">
          <mxGeometry relative="1" as="geometry" />
        </mxCell>
        <mxCell id="8ei59CMYlsV4Cs0Kjq3F-8" value="x" style="ellipse;whiteSpace=wrap;html=1;aspect=fixed;fillColor=none;" vertex="1" parent="1">
          <mxGeometry x="385" y="235" width="30" height="30" as="geometry" />
        </mxCell>
        <mxCell id="8ei59CMYlsV4Cs0Kjq3F-9" style="edgeStyle=orthogonalEdgeStyle;rounded=0;orthogonalLoop=1;jettySize=auto;html=1;exitX=1;exitY=0.5;exitDx=0;exitDy=0;entryX=0.75;entryY=1;entryDx=0;entryDy=0;strokeColor=#000000;strokeWidth=3;" edge="1" parent="1" source="8ei59CMYlsV4Cs0Kjq3F-11" target="8ei59CMYlsV4Cs0Kjq3F-4">
          <mxGeometry relative="1" as="geometry">
            <Array as="points">
              <mxPoint x="315" y="240" />
              <mxPoint x="315" y="305" />
              <mxPoint x="140" y="305" />
              <mxPoint x="140" y="270" />
            </Array>
          </mxGeometry>
        </mxCell>
        <mxCell id="8ei59CMYlsV4Cs0Kjq3F-10" style="edgeStyle=orthogonalEdgeStyle;rounded=0;orthogonalLoop=1;jettySize=auto;html=1;exitX=1;exitY=0.5;exitDx=0;exitDy=0;entryX=0;entryY=0;entryDx=0;entryDy=0;strokeColor=#000000;strokeWidth=3;" edge="1" parent="1" source="8ei59CMYlsV4Cs0Kjq3F-11" target="8ei59CMYlsV4Cs0Kjq3F-8">
          <mxGeometry relative="1" as="geometry">
            <Array as="points">
              <mxPoint x="369" y="240" />
            </Array>
          </mxGeometry>
        </mxCell>
        <mxCell id="8ei59CMYlsV4Cs0Kjq3F-11" value="V_mem" style="rounded=0;whiteSpace=wrap;html=1;fillColor=#CCCCCC;" vertex="1" parent="1">
          <mxGeometry x="225" y="220" width="70" height="40" as="geometry" />
        </mxCell>
        <mxCell id="8ei59CMYlsV4Cs0Kjq3F-12" value="" style="endArrow=classic;html=1;rounded=0;entryX=0.25;entryY=1;entryDx=0;entryDy=0;fillColor=#d5e8d4;strokeColor=#666666;strokeWidth=3;" edge="1" parent="1" target="8ei59CMYlsV4Cs0Kjq3F-4">
          <mxGeometry width="50" height="50" relative="1" as="geometry">
            <mxPoint x="75" y="210" as="sourcePoint" />
            <mxPoint x="105" y="195" as="targetPoint" />
          </mxGeometry>
        </mxCell>
        <mxCell id="8ei59CMYlsV4Cs0Kjq3F-13" value="i_weight" style="edgeLabel;html=1;align=center;verticalAlign=middle;resizable=0;points=[];labelBackgroundColor=none;" vertex="1" connectable="0" parent="8ei59CMYlsV4Cs0Kjq3F-12">
          <mxGeometry x="-0.7412" y="-2" relative="1" as="geometry">
            <mxPoint x="-1" y="-17" as="offset" />
          </mxGeometry>
        </mxCell>
        <mxCell id="8ei59CMYlsV4Cs0Kjq3F-14" value="" style="endArrow=classic;html=1;rounded=0;strokeColor=#666666;strokeWidth=3;" edge="1" parent="1">
          <mxGeometry width="50" height="50" relative="1" as="geometry">
            <mxPoint x="174.8" y="130" as="sourcePoint" />
            <mxPoint x="174.8" y="190" as="targetPoint" />
          </mxGeometry>
        </mxCell>
        <mxCell id="8ei59CMYlsV4Cs0Kjq3F-15" value="i_spike_flag" style="edgeLabel;html=1;align=center;verticalAlign=middle;resizable=0;points=[];labelBackgroundColor=none;" vertex="1" connectable="0" parent="8ei59CMYlsV4Cs0Kjq3F-14">
          <mxGeometry x="-0.6267" y="-1" relative="1" as="geometry">
            <mxPoint x="1" y="-16" as="offset" />
          </mxGeometry>
        </mxCell>
        <mxCell id="8ei59CMYlsV4Cs0Kjq3F-16" style="edgeStyle=orthogonalEdgeStyle;rounded=0;orthogonalLoop=1;jettySize=auto;html=1;exitX=1;exitY=0.5;exitDx=0;exitDy=0;entryX=0.5;entryY=1;entryDx=0;entryDy=0;strokeColor=#000000;strokeWidth=3;" edge="1" parent="1" source="8ei59CMYlsV4Cs0Kjq3F-17" target="8ei59CMYlsV4Cs0Kjq3F-8">
          <mxGeometry relative="1" as="geometry" />
        </mxCell>
        <mxCell id="8ei59CMYlsV4Cs0Kjq3F-17" value="beta" style="rounded=0;whiteSpace=wrap;html=1;fillColor=#CCCCCC;" vertex="1" parent="1">
          <mxGeometry x="321.25" y="280" width="70" height="40" as="geometry" />
        </mxCell>
        <mxCell id="8ei59CMYlsV4Cs0Kjq3F-18" style="edgeStyle=orthogonalEdgeStyle;rounded=0;orthogonalLoop=1;jettySize=auto;html=1;exitX=1;exitY=0.5;exitDx=0;exitDy=0;entryX=0.25;entryY=1;entryDx=0;entryDy=0;strokeColor=#000000;strokeWidth=3;" edge="1" parent="1" source="8ei59CMYlsV4Cs0Kjq3F-19" target="8ei59CMYlsV4Cs0Kjq3F-22">
          <mxGeometry relative="1" as="geometry" />
        </mxCell>
        <mxCell id="8ei59CMYlsV4Cs0Kjq3F-33" style="edgeStyle=orthogonalEdgeStyle;rounded=0;orthogonalLoop=1;jettySize=auto;html=1;exitX=1;exitY=0.5;exitDx=0;exitDy=0;entryX=0.25;entryY=1;entryDx=0;entryDy=0;strokeWidth=3;" edge="1" parent="1" source="8ei59CMYlsV4Cs0Kjq3F-19" target="8ei59CMYlsV4Cs0Kjq3F-25">
          <mxGeometry relative="1" as="geometry" />
        </mxCell>
        <mxCell id="8ei59CMYlsV4Cs0Kjq3F-19" value="V_threshold" style="rounded=0;whiteSpace=wrap;html=1;fillColor=#CCCCCC;" vertex="1" parent="1">
          <mxGeometry x="315" y="180" width="70" height="40" as="geometry" />
        </mxCell>
        <mxCell id="8ei59CMYlsV4Cs0Kjq3F-20" style="edgeStyle=orthogonalEdgeStyle;rounded=0;orthogonalLoop=1;jettySize=auto;html=1;entryX=0;entryY=0.25;entryDx=0;entryDy=0;exitX=0.5;exitY=0;exitDx=0;exitDy=0;strokeColor=#808080;strokeWidth=3;" edge="1" parent="1" source="8ei59CMYlsV4Cs0Kjq3F-22" target="8ei59CMYlsV4Cs0Kjq3F-25">
          <mxGeometry relative="1" as="geometry">
            <Array as="points">
              <mxPoint x="495" y="225" />
              <mxPoint x="495" y="150" />
              <mxPoint x="352" y="150" />
            </Array>
          </mxGeometry>
        </mxCell>
        <mxCell id="8ei59CMYlsV4Cs0Kjq3F-21" style="edgeStyle=orthogonalEdgeStyle;rounded=0;orthogonalLoop=1;jettySize=auto;html=1;exitX=0.5;exitY=0;exitDx=0;exitDy=0;strokeColor=#666666;strokeWidth=3;" edge="1" parent="1" source="8ei59CMYlsV4Cs0Kjq3F-22">
          <mxGeometry relative="1" as="geometry">
            <mxPoint x="535" y="225" as="targetPoint" />
          </mxGeometry>
        </mxCell>
        <mxCell id="8ei59CMYlsV4Cs0Kjq3F-22" value="" style="shape=trapezoid;perimeter=trapezoidPerimeter;whiteSpace=wrap;html=1;fixedSize=1;rotation=90;fillColor=none;" vertex="1" parent="1">
          <mxGeometry x="422.5" y="212.5" width="102.5" height="25" as="geometry" />
        </mxCell>
        <mxCell id="8ei59CMYlsV4Cs0Kjq3F-23" value="&amp;gt;" style="text;html=1;align=center;verticalAlign=middle;whiteSpace=wrap;rounded=0;" vertex="1" parent="1">
          <mxGeometry x="443.75" y="212.5" width="60" height="30" as="geometry" />
        </mxCell>
        <mxCell id="8ei59CMYlsV4Cs0Kjq3F-24" style="edgeStyle=orthogonalEdgeStyle;rounded=0;orthogonalLoop=1;jettySize=auto;html=1;exitX=0.5;exitY=0;exitDx=0;exitDy=0;entryX=0.5;entryY=0;entryDx=0;entryDy=0;strokeColor=#000000;strokeWidth=3;" edge="1" parent="1" source="8ei59CMYlsV4Cs0Kjq3F-25" target="8ei59CMYlsV4Cs0Kjq3F-11">
          <mxGeometry relative="1" as="geometry" />
        </mxCell>
        <mxCell id="8ei59CMYlsV4Cs0Kjq3F-25" value="" style="shape=trapezoid;perimeter=trapezoidPerimeter;whiteSpace=wrap;html=1;fixedSize=1;rotation=-90;fillColor=none;" vertex="1" parent="1">
          <mxGeometry x="315" y="85" width="82.5" height="25" as="geometry" />
        </mxCell>
        <mxCell id="8ei59CMYlsV4Cs0Kjq3F-26" value="&lt;div&gt;S&lt;/div&gt;&lt;div&gt;U&lt;/div&gt;&lt;div&gt;B&lt;/div&gt;" style="text;html=1;align=center;verticalAlign=middle;whiteSpace=wrap;rounded=0;" vertex="1" parent="1">
          <mxGeometry x="326.25" y="82.5" width="60" height="30" as="geometry" />
        </mxCell>
        <mxCell id="8ei59CMYlsV4Cs0Kjq3F-27" value="o_spike_flag" style="text;html=1;align=center;verticalAlign=middle;whiteSpace=wrap;rounded=0;" vertex="1" parent="1">
          <mxGeometry x="500" y="195" width="60" height="30" as="geometry" />
        </mxCell>
        <mxCell id="8ei59CMYlsV4Cs0Kjq3F-28" value="Weight update" style="text;html=1;align=center;verticalAlign=middle;whiteSpace=wrap;rounded=0;" vertex="1" parent="1">
          <mxGeometry x="55" y="105" width="60" height="30" as="geometry" />
        </mxCell>
        <mxCell id="8ei59CMYlsV4Cs0Kjq3F-29" value="membrane update" style="text;html=1;align=center;verticalAlign=middle;whiteSpace=wrap;rounded=0;" vertex="1" parent="1">
          <mxGeometry x="305" y="35" width="60" height="30" as="geometry" />
        </mxCell>
        <mxCell id="8ei59CMYlsV4Cs0Kjq3F-30" value="" style="rounded=0;whiteSpace=wrap;html=1;fillColor=none;strokeColor=#CC0000;strokeWidth=3;" vertex="1" parent="1">
          <mxGeometry x="370" y="225" width="55" height="50" as="geometry" />
        </mxCell>
      </root>
    </mxGraphModel>
  </diagram>
</mxfile>
